<svg width="23" height="20" viewBox="0 0 23 20" fill="none" xmlns="http://www.w3.org/2000/svg">
<path d="M2.0912 12.5846L2.47566 10.7658C2.93006 8.61611 3.15726 7.5413 4.05699 6.90493C4.95672 6.26855 6.24916 6.26855 8.83404 6.26855H14.166C16.7508 6.26855 18.0433 6.26855 18.943 6.90493C19.8427 7.5413 20.0699 8.61611 20.5243 10.7658L20.9088 12.5846C21.5376 15.5593 21.852 17.0466 20.8839 18.0234C19.9158 19.0003 18.1273 19.0003 14.5504 19.0003H8.44957C4.87269 19.0003 3.08425 19.0003 2.11614 18.0234C1.14802 17.0466 1.46242 15.5593 2.0912 12.5846Z" stroke="white" stroke-width="1.5"/>
<path d="M6.76318 6.26829L6.93984 4.50006C7.13748 2.52171 9.1201 1 11.5 1C13.8799 1 15.8625 2.52171 16.0602 4.50006L16.2369 6.26829" stroke="white" stroke-width="1.5"/>
<path d="M14.6581 8.90234C14.5212 10.1431 13.1483 11.0975 11.5002 11.0975C9.85207 11.0975 8.47915 10.1431 8.34229 8.90234" stroke="white" stroke-width="1.5" stroke-linecap="round"/>
</svg>
