<svg width="24" height="24" viewBox="0 0 24 24" fill="none" xmlns="http://www.w3.org/2000/svg">
<path d="M3.0912 13.5846L3.47566 11.7658C3.93006 9.61611 4.15726 8.5413 5.05699 7.90493C5.95672 7.26855 7.24916 7.26855 9.83404 7.26855H15.166C17.7508 7.26855 19.0433 7.26855 19.943 7.90493C20.8427 8.5413 21.0699 9.61611 21.5243 11.7658L21.9088 13.5846C22.5376 16.5593 22.852 18.0466 21.8839 19.0234C20.9158 20.0003 19.1273 20.0003 15.5504 20.0003H9.44957C5.87269 20.0003 4.08425 20.0003 3.11614 19.0234C2.14802 18.0466 2.46242 16.5593 3.0912 13.5846Z" stroke="#FF5C24" stroke-width="1.5"/>
<path d="M7.76318 7.26829L7.93984 5.50006C8.13748 3.52171 10.1201 2 12.5 2C14.8799 2 16.8625 3.52171 17.0602 5.50006L17.2369 7.26829" stroke="#FF5C24" stroke-width="1.5"/>
<path d="M15.6581 9.90234C15.5212 11.1431 14.1483 12.0975 12.5002 12.0975C10.8521 12.0975 9.47915 11.1431 9.34229 9.90234" stroke="#FF5C24" stroke-width="1.5" stroke-linecap="round"/>
</svg>
