<svg width="20" height="18" viewBox="0 0 20 18" fill="none" xmlns="http://www.w3.org/2000/svg">
<path fill-rule="evenodd" clip-rule="evenodd" d="M16.9304 14.2192C18.3463 12.7139 19.2 10.7667 19.2 8.64C19.2 3.86826 14.9019 0 9.6 0C4.29807 0 0 3.86826 0 8.64C0 13.4117 4.29807 17.28 9.6 17.28C11.963 17.28 14.1265 16.5116 15.7991 15.2374L18.6343 17.7891C18.9467 18.0703 19.4533 18.0703 19.7657 17.7891C20.0781 17.5079 20.0781 17.0521 19.7657 16.7709L16.9304 14.2192ZM17.6 8.64C17.6 12.6164 14.0183 15.84 9.6 15.84C5.18172 15.84 1.6 12.6164 1.6 8.64C1.6 4.66355 5.18172 1.44 9.6 1.44C14.0183 1.44 17.6 4.66355 17.6 8.64Z" fill="white"/>
</svg>
